<?xml version="1.0" encoding="UTF-8"?>
<svg id="Camada_1" data-name="Camada 1" xmlns="http://www.w3.org/2000/svg" viewBox="0 0 1080 1080">
  <defs>
    <style>
      .cls-1 {
        fill: #eeeff1;
      }

      .cls-2 {
        fill: #174d8b;
      }
    </style>
  </defs>
  <rect class="cls-2" x="99.81" y="371.1" width="880.39" height="337.8" rx="46.06" ry="46.06"/>
  <g>
    <path class="cls-1" d="M284.98,587.44l-2.95-14.19h-22.76l-3.1,14.19h-25.42l24.39-94.89h31.48l24.39,94.89h-26.01ZM263.25,554.93h14.78l-7.24-34.14-7.54,34.14Z"/>
    <path class="cls-1" d="M318.38,492.56h43.6c14.49,0,21.73,6.11,21.73,18.33v58.23c0,12.22-7.24,18.33-21.73,18.33h-43.6v-94.89ZM357.84,567.2v-54.39c0-2.16-1.23-3.25-3.7-3.25h-9.9v60.89h9.9c2.46,0,3.7-1.08,3.7-3.25Z"/>
    <path class="cls-1" d="M395.08,492.56h25.87v94.89h-25.87v-94.89Z"/>
    <path class="cls-1" d="M496.33,528.03h-25.87v-15.22c0-2.16-1.23-3.25-3.69-3.25h-5.17c-2.46,0-3.69,1.09-3.69,3.25v54.39c0,2.17,1.23,3.25,3.69,3.25h5.17c2.46,0,3.69-1.08,3.69-3.25v-14.63h25.87v16.55c0,12.22-7.24,18.33-21.73,18.33h-20.84c-14.49,0-21.73-6.11-21.73-18.33v-58.23c0-12.22,7.24-18.33,21.73-18.33h20.84c14.48,0,21.73,6.11,21.73,18.33v17.14Z"/>
    <path class="cls-1" d="M505.93,492.56h25.87v94.89h-25.87v-94.89Z"/>
    <path class="cls-1" d="M564.9,492.56h21.88c14.48,0,21.73,6.11,21.73,18.33v58.23c0,12.22-7.24,18.33-21.73,18.33h-21.88c-14.48,0-21.73-6.11-21.73-18.33v-58.23c0-12.22,7.24-18.33,21.73-18.33ZM582.64,565.72v-51.43c0-2.17-1.23-3.25-3.69-3.25h-6.21c-2.46,0-3.69,1.09-3.69,3.25v51.43c0,2.17,1.23,3.25,3.69,3.25h6.21c2.46,0,3.69-1.09,3.69-3.25Z"/>
    <path class="cls-1" d="M663.19,492.56h23.65v94.89h-22.17l-21.13-49.81v49.81h-23.65v-94.89h22.17l21.14,50.7v-50.7Z"/>
    <path class="cls-1" d="M746.99,587.44l-2.96-14.19h-22.76l-3.1,14.19h-25.42l24.39-94.89h31.48l24.39,94.89h-26.02ZM725.26,554.93h14.78l-7.24-34.14-7.54,34.14Z"/>
    <path class="cls-1" d="M804.78,553.75v33.7h-25.86v-94.89h43.9c14.48,0,21.73,6.11,21.73,18.33v24.53c0,9.36-4.24,15.13-12.71,17.29l17.44,34.73h-27.79l-15.08-33.7h-1.63ZM814.97,511.03h-10.2v25.13h10.2c2.46,0,3.7-1.09,3.7-3.25v-18.62c0-2.17-1.23-3.25-3.7-3.25Z"/>
  </g>
</svg>