<?xml version="1.0" encoding="UTF-8"?>
<svg id="Camada_1" data-name="Camada 1" xmlns="http://www.w3.org/2000/svg" viewBox="0 0 1080 1080">
  <defs>
    <style>
      .cls-1 {
        fill: #eeeff1;
      }

      .cls-2 {
        fill: #174d8b;
      }
    </style>
  </defs>
  <rect class="cls-2" x="45.98" y="398.08" width="988.04" height="283.84" rx="38.54" ry="38.54"/>
  <g>
    <path class="cls-1" d="M386.74,525.52h-23.11v-10.96c0-1.94-1.1-2.9-3.3-2.9h-4.75c-2.2,0-3.3.97-3.3,2.9v48.58c0,1.94,1.1,2.9,3.3,2.9h4.75c2.2,0,3.3-.97,3.3-2.9v-14.13h-6.6v-14.65h29.7v30.5c0,10.91-6.47,16.37-19.41,16.37h-18.75c-12.94,0-19.41-5.46-19.41-16.37v-52.01c0-10.91,6.47-16.37,19.41-16.37h18.75c12.94,0,19.41,5.46,19.41,16.37v12.67Z"/>
    <path class="cls-1" d="M419.08,551.13v30.1h-23.1v-84.76h39.21c12.94,0,19.41,5.46,19.41,16.37v21.92c0,8.36-3.79,13.51-11.35,15.44l15.58,31.02h-24.82l-13.46-30.1h-1.45ZM428.19,512.98h-9.11v22.44h9.11c2.2,0,3.3-.97,3.3-2.9v-16.64c0-1.94-1.1-2.9-3.3-2.9Z"/>
    <path class="cls-1" d="M507,581.23l-2.64-12.67h-20.33l-2.77,12.67h-22.71l21.78-84.76h28.12l21.78,84.76h-23.23ZM521.13,472.32l-17.56,19.8h-17.69l12.81-19.8h22.44ZM487.59,552.19h13.2l-6.47-30.5-6.73,30.5Z"/>
    <path class="cls-1" d="M586.34,512.98h-27.72v20.59h24.03v15.18h-24.03v32.48h-23.1v-84.76h50.82v16.5Z"/>
    <path class="cls-1" d="M593.6,496.48h23.1v84.76h-23.1v-84.76Z"/>
    <path class="cls-1" d="M684.03,528.16h-23.11v-13.6c0-1.94-1.1-2.9-3.3-2.9h-4.62c-2.2,0-3.3.97-3.3,2.9v48.58c0,1.94,1.1,2.9,3.3,2.9h4.62c2.2,0,3.3-.97,3.3-2.9v-13.07h23.11v14.79c0,10.91-6.47,16.37-19.41,16.37h-18.61c-12.94,0-19.41-5.46-19.41-16.37v-52.01c0-10.91,6.47-16.37,19.41-16.37h18.61c12.94,0,19.41,5.46,19.41,16.37v15.31Z"/>
    <path class="cls-1" d="M711.62,496.48h19.54c12.94,0,19.4,5.46,19.4,16.37v52.01c0,10.91-6.47,16.37-19.4,16.37h-19.54c-12.94,0-19.41-5.46-19.41-16.37v-52.01c0-10.91,6.47-16.37,19.41-16.37ZM727.47,561.82v-45.94c0-1.94-1.1-2.9-3.3-2.9h-5.55c-2.2,0-3.3.97-3.3,2.9v45.94c0,1.94,1.1,2.9,3.3,2.9h5.55c2.2,0,3.3-.97,3.3-2.9Z"/>
  </g>
</svg>