<?xml version="1.0" encoding="UTF-8"?>
<svg id="Camada_1" data-name="Camada 1" xmlns="http://www.w3.org/2000/svg" viewBox="0 0 1080 1080">
  <defs>
    <style>
      .cls-1 {
        fill: #eeeff1;
      }

      .cls-2 {
        fill: #174d8b;
      }
    </style>
  </defs>
  <rect class="cls-2" x="45.98" y="398.08" width="988.04" height="283.84" rx="38.54" ry="38.54"/>
  <g>
    <path class="cls-1" d="M243.17,561.82v-12.01c0-1.94-1.1-2.9-3.3-2.9h-12.67c-6.51,0-11.11-1.43-13.79-4.29-2.69-2.86-4.03-6.98-4.03-12.34v-17.43c0-10.91,6.42-16.37,19.27-16.37h18.09c12.85,0,19.28,5.46,19.28,16.37v10.16h-23.11v-7.13c0-1.94-1.1-2.9-3.3-2.9h-3.83c-2.2,0-3.3.97-3.3,2.9v12.54c0,1.94,1.1,2.9,3.3,2.9h12.41c6.51,0,11.16,1.37,13.93,4.09,2.77,2.73,4.16,6.73,4.16,12.01v17.43c0,10.91-6.43,16.37-19.28,16.37h-17.95c-12.94,0-19.41-5.46-19.41-16.37v-10.16h23.1v7.13c0,1.94,1.1,2.9,3.3,2.9h3.83c2.2,0,3.3-.97,3.3-2.9Z"/>
    <path class="cls-1" d="M298.61,564.73h28.91v16.5h-52.01v-84.76h50.82v16.5h-27.72v17.29h23.9v16.5h-23.9v17.95Z"/>
    <path class="cls-1" d="M370.03,496.48h23.11v68.38c0,10.91-6.47,16.37-19.41,16.37h-19.54c-12.94,0-19.4-5.46-19.4-16.37v-68.38h23.1v65.35c0,1.94,1.1,2.9,3.3,2.9h5.55c2.2,0,3.3-.97,3.3-2.9v-65.35Z"/>
    <path class="cls-1" d="M481.19,496.48v16.5h-16.37v68.25h-23.1v-68.25h-16.24v-16.5h55.71Z"/>
    <path class="cls-1" d="M510.23,564.73h28.91v16.5h-52.01v-84.76h50.82v16.5h-27.72v17.29h23.9v16.5h-23.9v17.95Z"/>
    <path class="cls-1" d="M569.51,551.13v30.1h-23.1v-84.76h39.21c12.94,0,19.41,5.46,19.41,16.37v21.92c0,8.36-3.79,13.51-11.35,15.44l15.58,31.02h-24.82l-13.46-30.1h-1.45ZM578.62,512.98h-9.11v22.44h9.11c2.2,0,3.3-.97,3.3-2.9v-16.64c0-1.94-1.1-2.9-3.3-2.9Z"/>
    <path class="cls-1" d="M637.36,551.13v30.1h-23.1v-84.76h39.21c12.94,0,19.41,5.46,19.41,16.37v21.92c0,8.36-3.79,13.51-11.35,15.44l15.58,31.02h-24.82l-13.46-30.1h-1.45ZM646.47,512.98h-9.11v22.44h9.11c2.2,0,3.3-.97,3.3-2.9v-16.64c0-1.94-1.1-2.9-3.3-2.9Z"/>
    <path class="cls-1" d="M705.22,564.73h28.91v16.5h-52.01v-84.76h50.82v16.5h-27.72v17.29h23.9v16.5h-23.9v17.95Z"/>
    <path class="cls-1" d="M780.07,496.48h21.12v84.76h-19.8l-18.88-44.49v44.49h-21.12v-84.76h19.8l18.88,45.28v-45.28Z"/>
    <path class="cls-1" d="M830.77,496.48h19.54c12.94,0,19.4,5.46,19.4,16.37v52.01c0,10.91-6.47,16.37-19.4,16.37h-19.54c-12.94,0-19.41-5.46-19.41-16.37v-52.01c0-10.91,6.47-16.37,19.41-16.37ZM846.61,561.82v-45.94c0-1.94-1.1-2.9-3.3-2.9h-5.55c-2.2,0-3.3.97-3.3,2.9v45.94c0,1.94,1.1,2.9,3.3,2.9h5.55c2.2,0,3.3-.97,3.3-2.9Z"/>
  </g>
</svg>