<?xml version="1.0" encoding="UTF-8"?>
<svg id="Camada_1" data-name="Camada 1" xmlns="http://www.w3.org/2000/svg" viewBox="0 0 1080 1080">
  <defs>
    <style>
      .cls-1 {
        fill: #eeeff1;
      }

      .cls-2 {
        fill: #174d8b;
      }
    </style>
  </defs>
  <rect class="cls-2" x="278.87" y="278.87" width="522.26" height="522.26" rx="197.53" ry="197.53"/>
  <path class="cls-1" d="M671.07,512.78v50.55c0,5.4-4.38,9.78-9.78,9.78h-70.18c-5.4,0-9.78,4.38-9.78,9.78v67.37c0,5.4-4.38,9.78-9.78,9.78h-71.86c-5.4,0-9.78-4.38-9.78-9.78v-67.37c0-5.4-4.38-9.78-9.78-9.78h-70.18c-5.4,0-9.78-4.38-9.78-9.78v-50.55c0-5.4,4.38-9.78,9.78-9.78h70.18c5.4,0,9.78-4.38,9.78-9.78v-67.38c0-5.4,4.38-9.78,9.78-9.78h71.86c5.4,0,9.78,4.38,9.78,9.78v67.38c0,5.4,4.38,9.78,9.78,9.78h70.18c5.4,0,9.78,4.38,9.78,9.78Z"/>
</svg>