<?xml version="1.0" encoding="UTF-8"?>
<svg id="Camada_1" data-name="Camada 1" xmlns="http://www.w3.org/2000/svg" viewBox="0 0 1080 1080">
  <defs>
    <style>
      .cls-1 {
        fill: #eeeff1;
      }

      .cls-2 {
        fill: #174d8b;
      }
    </style>
  </defs>
  <rect class="cls-1" x="205.4" y="242.94" width="669.19" height="594.11" rx="208.22" ry="208.22"/>
  <path class="cls-2" d="M708.91,384.01h-7.25c-5.08,0-9.21,4.13-9.21,9.21v25.19c0,.91-.73,1.65-1.66,1.66-70.22,1.41-116.79,14.18-147.04,75.35-2.64,5.35-4.9,10.79-7.1,16.08-4.76,11.45-9.25,22.26-16.73,29.9-14.94,15.27-40.71,16.33-59.69,14.52-22.49-2.15-61.96-4.56-89.06-4.88-2.22.06-4.8.91-6.56,2.65-1.77,1.75-2.74,4.08-2.74,6.56v7.25c0,5.01,4.09,9.15,9.11,9.2,26,.31,65.31,2.71,86.82,4.76,34.75,3.31,63.15-4.43,80.47-22.12,10.95-11.18,16.61-24.83,22.1-38.04,2.12-5.1,4.12-9.92,6.39-14.51,22.35-45.19,51.31-59.45,123.97-61.05.6-.08,1.04.3,1.23.49.19.18.5.58.5,1.18v197.64c0,.92-.75,1.66-1.67,1.66h-319.7c-5.08,0-9.21,4.13-9.21,9.21v7.25c0,5.08,4.13,9.21,9.21,9.21h337.83c5.08,0,9.21-4.13,9.21-9.21v-269.98c0-5.08-4.13-9.21-9.21-9.21Z"/>
</svg>