<?xml version="1.0" encoding="UTF-8"?>
<svg id="Camada_1" data-name="Camada 1" xmlns="http://www.w3.org/2000/svg" viewBox="0 0 1080 1080">
  <defs>
    <style>
      .cls-1 {
        fill: #eeeff1;
      }

      .cls-2 {
        fill: #174d8b;
      }
    </style>
  </defs>
  <rect class="cls-2" x="93.09" y="371.1" width="893.81" height="337.8" rx="132.12" ry="132.12"/>
  <g>
    <path class="cls-1" d="M560.3,471.61l21.74,41.71c1.81,3.48,7.08,2.19,7.08-1.73v-38.24c0-2.07,1.68-3.75,3.75-3.75h34.75c2.07,0,3.75,1.68,3.75,3.75v133.32c0,2.07-1.68,3.75-3.75,3.75h-36.28c-1.37,0-2.63-.75-3.29-1.95l-21.76-39.65c-1.87-3.4-7.04-2.08-7.04,1.81v36.04c0,2.07-1.68,3.75-3.75,3.75h-34.75c-2.07,0-3.75-1.68-3.75-3.75v-133.32c0-2.07,1.68-3.75,3.75-3.75h36.23c1.4,0,2.68.78,3.33,2.02Z"/>
    <path class="cls-1" d="M346.76,473.34v88.15c0,2.07,1.68,3.75,3.75,3.75h34.75c2.07,0,3.75,1.68,3.75,3.75v37.66c0,2.07-1.68,3.75-3.75,3.75h-77.01c-2.07,0-3.75-1.68-3.75-3.75,0-17.65,0-93.25,0-133.32,0-2.07,1.68-3.75,3.75-3.75h34.75c2.07,0,3.75,1.68,3.75,3.75Z"/>
    <path class="cls-1" d="M196.56,473.34v133.32c0,2.07,1.68,3.75,3.75,3.75h34.75c2.07,0,3.75-1.68,3.75-3.75v-30.5c0-2.07,1.68-3.75,3.75-3.75h49.81c2.07,0,3.75-1.68,3.75-3.76v-95.31c0-2.07-1.68-3.75-3.75-3.75h-92.07c-2.07,0-3.75,1.68-3.75,3.76ZM250.12,532.01h-7.55c-2.07,0-3.75-1.68-3.75-3.75v-13.58c0-2.07,1.68-3.75,3.75-3.75h7.55c2.07,0,3.75,1.68,3.75,3.75v13.58c0,2.07-1.68,3.75-3.75,3.75Z"/>
    <path class="cls-1" d="M485.01,469.59h-64.03c-1.86,0-3.44,1.35-3.71,3.19l-19.85,133.32c-.34,2.27,1.42,4.31,3.71,4.31h35.39c1.89,0,3.49-1.41,3.72-3.29l2.19-17.41c.24-1.88,1.83-3.29,3.73-3.29h13.69c1.89,0,3.49,1.41,3.72,3.29l2.19,17.42c.24,1.88,1.83,3.29,3.72,3.29h35.39c2.29,0,4.05-2.04,3.71-4.31l-19.85-133.32c-.27-1.84-1.85-3.2-3.71-3.2ZM445.4,546.13l3.87-31.87c.5-4.45,6.96-4.45,7.46,0l3.87,31.88c.25,2.22-1.49,4.17-3.73,4.17h-7.73c-2.24,0-3.98-1.95-3.73-4.17Z"/>
    <g>
      <g>
        <rect class="cls-1" x="681.51" y="469.58" width="42.26" height="33.83" rx="3.75" ry="3.75"/>
        <rect class="cls-1" x="681.51" y="513.18" width="42.26" height="97.24" rx="3.75" ry="3.75"/>
      </g>
      <path class="cls-1" d="M828.59,469.58h-91.96c-2.07,0-3.75,1.68-3.75,3.75v36.1c0,2.07,1.68,3.75,3.75,3.75h21.02c2.07,0,3.75,1.68,3.75,3.75v89.73c0,2.07,1.68,3.75,3.75,3.75h34.75c2.07,0,3.75-1.68,3.75-3.75v-89.73c0-2.07,1.68-3.75,3.75-3.75h21.18c2.07,0,3.75-1.68,3.75-3.75v-36.1c0-2.07-1.68-3.75-3.75-3.75Z"/>
      <g>
        <rect class="cls-1" x="845.43" y="573.83" width="34.04" height="36.59" rx="3.75" ry="3.75"/>
        <path class="cls-1" d="M883.43,473.42l-3.81,87c-.09,1.95-1.58,3.48-3.39,3.48h-27.56c-1.81,0-3.31-1.53-3.39-3.48l-3.81-87c-.09-2.08,1.46-3.83,3.39-3.83h35.19c1.94,0,3.49,1.74,3.39,3.83Z"/>
      </g>
    </g>
  </g>
</svg>