<?xml version="1.0" encoding="UTF-8"?>
<svg id="Camada_1" data-name="Camada 1" xmlns="http://www.w3.org/2000/svg" viewBox="0 0 1080 1080">
  <defs>
    <style>
      .cls-1 {
        fill: #174d8b;
      }
    </style>
  </defs>
  <path class="cls-1" d="M355.67,723.05c-3.45,0-6.25-2.8-6.25-6.25v-64.07c0-3.45-2.8-6.25-6.25-6.25h-17.51c-3.45,0-6.25,2.8-6.25,6.25v94.09c0,3.45,2.8,6.25,6.25,6.25h133.75c3.45,0,6.25-2.8,6.25-6.25v-17.51c0-3.45-2.8-6.25-6.25-6.25h-103.73Z"/>
  <path class="cls-1" d="M349.42,281.4c0-3.45,2.8-6.25,6.25-6.25h222.4c3.45,0,6.25,2.8,6.25,6.25v110.79c0,3.45,2.8,6.25,6.25,6.25h110.79c3.45,0,6.25,2.8,6.25,6.25v174.63c0,1.71.7,3.35,1.95,4.53l17.51,16.63c3.98,3.78,10.56.96,10.56-4.53v-207.36c0-1.66-.66-3.25-1.83-4.42l-137.22-137.22c-1.17-1.17-2.76-1.83-4.42-1.83h-268.51c-3.45,0-6.25,2.8-6.25,6.25v160.7c0,3.45,2.8,6.25,6.25,6.25h17.51c3.45,0,6.25-2.8,6.25-6.25v-130.68Z"/>
  <path class="cls-1" d="M574.54,622.7h36.72c3.45,0,6.25-2.8,6.25-6.25v-56.69c0-3.45,2.8-6.25,6.25-6.25h38.69c3.45,0,6.25-2.8,6.25-6.25v-19.84c0-3.45-2.8-6.25-6.25-6.25h-38.69c-3.45,0-6.25-2.8-6.25-6.25v-31.38c0-3.45,2.8-6.25,6.25-6.25h46.57c3.45,0,6.25-2.8,6.25-6.25v-22.65c0-3.45-2.8-6.25-6.25-6.25h-95.79c-3.45,0-6.25,2.8-6.25,6.25v168.09c0,3.45,2.8,6.25,6.25,6.25Z"/>
  <path class="cls-1" d="M401.95,468.81c-4.42-25.97-29.4-27.43-52.53-26.71-16.12-.03-49.26.02-65.49,0-1.72,0-3.28.7-4.4,1.82-1.13,1.13-1.82,2.68-1.82,4.4v168.14c0,1.72.7,3.28,1.82,4.4,1.13,1.14,2.76,1.83,4.4,1.82h35.47c3.8.47,7.57-2.18,7.53-6.23,0,0,0-46.62,0-46.62,0-3.4,2.76-6.23,6.23-6.23h16.27c21.85.62,48.07-.15,52.53-26.71,1.21-4.17.46-54.41.65-59.93,0-2.91-.22-5.63-.65-8.17ZM353.37,522.27c.15,4.39-3.1,6.31-7.03,6.19,0,0-13.18,0-13.18,0-3.46,0-6.24-2.83-6.23-6.23v-38.74c0-.86.17-1.68.49-2.42.96-2.25,3.16-3.8,5.74-3.8,2.29.13,14.31-.36,16.27.39,2.68.8,3.94,2.74,3.95,5.8v38.82Z"/>
  <path class="cls-1" d="M505.27,442.1h-76.73c-3.45,0-6.25,2.8-6.25,6.25v168.09c0,3.45,2.8,6.25,6.25,6.25h76.73c27.57,0,41.35-11.62,41.35-34.88v-110.83c0-23.25-13.79-34.88-41.35-34.88ZM497.4,584.16c0,4.13-2.35,6.19-7.03,6.19h-12.59c-3.45,0-6.25-2.8-6.25-6.25v-103.39c0-3.45,2.8-6.25,6.25-6.25h12.59c4.68,0,7.03,2.07,7.03,6.19v103.52Z"/>
  <path class="cls-1" d="M801.87,716.47c-.29-.52-.72-.97-1.29-1.3l-62.94-59.79-30.02-28.52-26.31-24.99c-.28-.16-.57-.28-.87-.35-.1-.03-.2-.02-.3-.04-.19-.03-.39-.07-.58-.07-.04,0-.09.01-.13.01-.22.01-.44.04-.65.1-.08.02-.16.05-.23.07-.18.06-.36.13-.53.22-.07.03-.13.06-.2.1-.22.13-.43.29-.62.47-.02.02-.03.04-.05.06-.17.17-.31.35-.44.56-.04.07-.08.14-.12.21-.09.17-.17.35-.23.54-.03.08-.06.16-.08.24-.07.27-.11.55-.11.85,0,0,0,0,0,0v54.2c0,3.45-2.8,6.25-6.25,6.25h-167.98c-.34,0-.66.06-.97.14-.27.07-.53.18-.78.31-.33.18-.64.38-.9.65-.26.26-.47.57-.65.9-.28.53-.45,1.12-.45,1.75v98.19c0,.64.17,1.23.45,1.75.48.9,1.31,1.58,2.32,1.86.31.08.64.14.97.14h167.98c3.45,0,6.25,2.8,6.25,6.25v54.2s0,0,0,0c0,.3.05.58.11.85.02.08.05.16.08.24.06.19.14.37.23.54.04.07.08.14.12.21.13.2.27.39.44.55.02.02.03.04.05.06.19.18.4.34.62.47.06.04.13.07.2.1.17.09.35.16.53.22.08.03.16.05.24.07.21.05.43.09.65.1.04,0,.09.01.13.01.19,0,.39-.04.59-.07.1-.02.2-.01.3-.04.29-.08.58-.19.87-.35l119.27-113.29c.57-.33,1-.79,1.29-1.3.57-1.03.57-2.31,0-3.35Z"/>
</svg>