<?xml version="1.0" encoding="UTF-8"?>
<svg id="Camada_1" data-name="Camada 1" xmlns="http://www.w3.org/2000/svg" viewBox="0 0 1080 1080">
  <defs>
    <style>
      .cls-1 {
        fill: #174d8b;
      }
    </style>
  </defs>
  <path class="cls-1" d="M506.53,714.59c-1.12-1.11-2.64-1.74-4.22-1.74h-151.54c-3.38,0-6.12-2.74-6.12-6.12v-426.11c0-3.38,2.74-6.12,6.12-6.12h217.66c3.38,0,6.12,2.74,6.12,6.12v108.43c0,3.38,2.74,6.12,6.12,6.12h108.43c3.38,0,6.12,2.74,6.12,6.12v107c0,3.31,2.69,6,6,6h17.38c3.31,0,6-2.69,6-6v-122.75c0-1.62-.65-3.18-1.79-4.33l-134.3-134.3c-1.15-1.15-2.7-1.79-4.33-1.79h-262.79c-3.38,0-6.12,2.74-6.12,6.12v484.86c0,3.38,2.74,6.12,6.12,6.12h198.47c5.36,0,8.03-6.49,4.22-10.27l-17.55-17.38Z"/>
  <path class="cls-1" d="M761.38,712.85s-53.04,0-53.04,0c-1.64,0-3.19-.66-4.33-1.79-1.11-1.11-1.79-2.64-1.79-4.33v-164.39c-.03-1.95-1.69-3.69-3.67-3.67,0,0-13.87,0-13.87,0-6.14.04-15.05.03-24.93,0h0c-4.11,0-8.39-.02-12.71-.03-17.2-.03-35.05-.05-45.49.14-1.64.39-2.71,1.92-2.77,3.55v155.33h0v9.07c.01,3.41-2.81,6.14-6.12,6.12,0,0-53.04,0-53.04,0-2.51-.06-4.22,2.91-2.91,5.04.68.71,108.61,114.34,109.35,115.11,2.36,2.49,6.33,2.49,8.7,0l109.53-115.11c.21-.37.36-.73.38-1.14.41-1.97-1.3-3.94-3.3-3.91Z"/>
  <path class="cls-1" d="M637.71,511.63c5.42,0,10.88.02,16.21.03,1.98,0,3.92,0,5.83.01v-54.85c0-.83-.17-1.62-.47-2.34-.76-1.8-2.37-3.14-4.32-3.54-.39-.08-.8-.12-1.21-.12h-267.67c-3.31,0-6,2.69-6,6v199.47c0,.83.17,1.62.47,2.34.76,1.8,2.37,3.14,4.32,3.54.39.08.79.12,1.21.12h185.69v-120.43l.02-.49c.43-11.92,7.7-22.38,18.26-27.06h-10.53c-.41,0-.82-.04-1.21-.12-1.95-.4-3.56-1.75-4.32-3.54-.3-.72-.47-1.51-.47-2.34v-30.48c0-.83.17-1.62.47-2.34.3-.72.74-1.36,1.29-1.91.05-.05.11-.08.16-.13.79-.74,1.78-1.28,2.88-1.51.39-.08.79-.12,1.21-.12h53.21c1.22,0,2.35.37,3.3.99.02.01.04.02.06.03.85.58,1.53,1.38,2,2.31.06.11.13.21.18.33.1.23.15.47.22.71.04.14.1.27.13.42.04.22.05.45.07.67.02.18.05.36.05.54l-.02,30.7c-.04,1.15-.42,2.21-1.02,3.1ZM466.31,635.27c0,.83-.17,1.62-.47,2.34-.3.72-.74,1.36-1.29,1.91-.05.05-.11.08-.16.13-.79.74-1.77,1.28-2.88,1.51-.39.08-.8.12-1.21.12h-53.21c-1.22,0-2.35-.37-3.3-.99-.02-.01-.04-.02-.06-.03-.85-.58-1.53-1.38-2-2.31-.06-.11-.13-.21-.18-.33-.1-.23-.15-.47-.22-.71-.04-.14-.1-.27-.13-.42-.04-.22-.05-.45-.07-.67-.02-.18-.05-.36-.05-.54l.02-30.7c.12-3.21,2.74-5.78,5.98-5.78h53.21c.41,0,.82.04,1.21.12,1.95.4,3.56,1.75,4.32,3.54.3.72.47,1.51.47,2.34v30.48ZM466.31,571.79c0,.38-.04.75-.11,1.11-.43,2.32-2.2,4.15-4.47,4.71-.46.11-.93.19-1.42.19h-53.21c-3.31,0-6-2.69-6-6v-30.48c0-3.31,2.69-6,6-6h53.21c3.31,0,6,2.69,6,6v30.48ZM466.31,508.3c0,3.31-2.69,6-6,6h-53.21c-3.31,0-6-2.69-6-6v-30.48c0-3.31,2.69-6,6-6h53.21c3.31,0,6,2.69,6,6v30.48ZM552.53,635.27c0,3.31-2.69,6-6,6h-53.22c-3.31,0-6-2.69-6-6v-30.48c0-.83.17-1.62.47-2.34.3-.72.74-1.36,1.29-1.91.05-.05.11-.08.16-.13.79-.74,1.78-1.28,2.88-1.51.39-.08.79-.12,1.21-.12h53.22c3.31,0,6,2.69,6,6v30.48ZM552.53,547.39v24.39c0,3.31-2.69,6-6,6h-53.22c-.41,0-.82-.04-1.21-.12-1.95-.4-3.56-1.75-4.32-3.54-.3-.72-.47-1.51-.47-2.34v-30.48c0-3.31,2.69-6,6-6h53.22c.41,0,.82.04,1.21.12,1.95.4,3.56,1.75,4.32,3.54.3.72.47,1.51.47,2.34v6.09ZM552.53,508.3c0,.83-.17,1.62-.47,2.34-.3.72-.74,1.36-1.29,1.91-.05.05-.11.08-.16.13-.79.74-1.77,1.28-2.88,1.51-.39.08-.8.12-1.21.12h-53.22c-3.31,0-6-2.69-6-6v-30.48c0-3.31,2.69-6,6-6h53.22c3.31,0,6,2.69,6,6v30.48Z"/>
</svg>