<?xml version="1.0" encoding="UTF-8"?>
<svg id="Camada_1" data-name="Camada 1" xmlns="http://www.w3.org/2000/svg" viewBox="0 0 1080 1080">
  <defs>
    <style>
      .cls-1 {
        fill: #edeef1;
      }
    </style>
  </defs>
  <path class="cls-1" d="M744.49,405.27h-56.54s-59.54,0-59.54,0c-3.3,0-5.97-2.67-5.97-5.97v-45.87c0-3.3-2.67-5.97-5.97-5.97h-152.94c-3.3,0-5.97,2.67-5.97,5.97v45.87c0,3.3-2.67,5.97-5.97,5.97h-116.08c-1.7,0-3.33.74-4.48,2-10.51,11.46-2.57,24.86,8.5,24.86h35.85c2.95,0,5.46,2.16,5.9,5.07l43.1,283.94c1,6.56,6.64,11.41,13.27,11.41h204.7c6.64,0,12.28-4.85,13.27-11.41l43.1-283.94c.44-2.92,2.95-5.07,5.9-5.07h35.85c11.07,0,19.01-13.39,8.5-24.86-1.15-1.25-2.78-2-4.48-2ZM490.38,374.31h99.24c3.3,0,5.97,2.67,5.97,5.97v19.02c0,3.3-2.67,5.97-5.97,5.97h-99.24c-3.3,0-5.97-2.67-5.97-5.97v-19.02c0-3.3,2.67-5.97,5.97-5.97ZM625.68,705.69h-171.35c-2.95,0-5.46-2.16-5.9-5.07l-39.71-261.63c-.55-3.61,2.25-6.86,5.9-6.86h250.78c3.65,0,6.45,3.25,5.9,6.86l-39.71,261.63c-.44,2.92-2.95,5.07-5.9,5.07Z"/>
  <path class="cls-1" d="M528.57,480.12c-1.25,1.15-2,2.78-2,4.48v168.6c0,1.7.74,3.33,2,4.48,11.46,10.51,24.86,2.57,24.86-8.5v-160.56c0-11.07-13.39-19.01-24.86-8.5Z"/>
  <path class="cls-1" d="M475.99,480.12c-1.25,1.15-2,2.78-2,4.48v168.6c0,1.7.74,3.33,2,4.48,11.46,10.51,24.86,2.57,24.86-8.5v-160.56c0-11.07-13.39-19.01-24.86-8.5Z"/>
  <path class="cls-1" d="M581.15,480.12c-1.25,1.15-2,2.78-2,4.48v168.6c0,1.7.74,3.33,2,4.48,11.46,10.51,24.86,2.57,24.86-8.5v-160.56c0-11.07-13.39-19.01-24.86-8.5Z"/>
</svg>