<?xml version="1.0" encoding="UTF-8"?>
<svg id="Camada_1" xmlns="http://www.w3.org/2000/svg" version="1.1" viewBox="0 0 1080 1080">
  <!-- Generator: Adobe Illustrator 29.5.0, SVG Export Plug-In . SVG Version: 2.1.0 Build 137)  -->
  <defs>
    <style>
      .st0 {
        fill: #174d8b;
      }
    </style>
  </defs>
  <path class="st0" d="M73.4,136.1v807.8c0,12.6,10.2,22.7,22.7,22.7h210.6c12.6,0,22.7-10.2,22.7-22.7v-184.8c0-12.5,10.2-22.7,22.7-22.7h301.8c12.5,0,22.7-10.2,22.7-22.7V136.1c0-12.6-10.2-22.7-22.7-22.7H96.1c-12.5,0-22.7,10.2-22.7,22.7h0ZM398,491.5h-45.7c-12.6,0-22.7-10.2-22.7-22.7v-82.3c0-12.6,10.2-22.7,22.7-22.7h45.7c12.6,0,22.7,10.2,22.7,22.7v82.3c0,12.6-10.2,22.7-22.7,22.7Z"/>
  <g>
    <rect class="st0" x="776.4" y="744.9" width="206.3" height="221.7" rx="22.7" ry="22.7"/>
    <path class="st0" d="M1006.6,136.5l-23.1,527.2c-.5,11.8-9.6,21.1-20.6,21.1h-167c-11,0-20-9.3-20.6-21.1l-23.1-527.2c-.5-12.6,8.8-23.2,20.6-23.2h213.2c11.7,0,21.1,10.6,20.6,23.2h0Z"/>
  </g>
</svg>