<?xml version="1.0" encoding="UTF-8"?>
<svg id="Camada_1" data-name="Camada 1" xmlns="http://www.w3.org/2000/svg" viewBox="0 0 1080 1080">
  <defs>
    <style>
      .cls-1 {
        fill: #174d8b;
      }
    </style>
  </defs>
  <path class="cls-1" d="M563.25,461.64l24.91,47.78c2.08,3.99,8.11,2.51,8.11-1.99v-43.81c0-2.38,1.93-4.3,4.3-4.3h39.81c2.38,0,4.3,1.93,4.3,4.3v152.74c0,2.38-1.93,4.3-4.3,4.3h-41.57c-1.57,0-3.01-.86-3.77-2.23l-24.93-45.43c-2.14-3.9-8.07-2.38-8.07,2.07v41.29c0,2.38-1.93,4.3-4.3,4.3h-39.81c-2.38,0-4.3-1.93-4.3-4.3v-152.74c0-2.38,1.93-4.3,4.3-4.3h41.51c1.6,0,3.07.89,3.81,2.31Z"/>
  <path class="cls-1" d="M318.61,463.63v100.99c0,2.38,1.93,4.3,4.3,4.3h39.81c2.38,0,4.3,1.93,4.3,4.3v43.15c0,2.38-1.93,4.3-4.3,4.3h-88.23c-2.38,0-4.3-1.92-4.3-4.3,0-20.22,0-106.84,0-152.75,0-2.38,1.93-4.3,4.3-4.3h39.81c2.38,0,4.3,1.93,4.3,4.3Z"/>
  <path class="cls-1" d="M146.53,463.63v152.74c0,2.38,1.93,4.3,4.3,4.3h39.81c2.38,0,4.3-1.93,4.3-4.3v-34.94c0-2.37,1.93-4.3,4.3-4.3h57.06c2.37,0,4.3-1.93,4.3-4.3v-109.19c0-2.38-1.93-4.3-4.3-4.3h-105.48c-2.37,0-4.3,1.93-4.3,4.3ZM207.9,530.85h-8.65c-2.38,0-4.3-1.93-4.3-4.3v-15.56c0-2.38,1.93-4.3,4.3-4.3h8.65c2.38,0,4.3,1.93,4.3,4.3v15.56c0,2.38-1.93,4.3-4.3,4.3Z"/>
  <path class="cls-1" d="M477,459.34h-73.35c-2.13,0-3.94,1.55-4.25,3.66l-22.75,152.74c-.39,2.6,1.63,4.93,4.25,4.93h40.54c2.17,0,4-1.61,4.27-3.76l2.51-19.95c.27-2.15,2.1-3.77,4.27-3.76h15.68c2.17,0,4,1.62,4.27,3.77l2.51,19.95c.27,2.15,2.1,3.76,4.27,3.76h40.54c2.63,0,4.64-2.34,4.25-4.93l-22.75-152.74c-.31-2.11-2.12-3.67-4.25-3.67ZM431.62,547.03l4.43-36.52c.57-5.1,7.98-5.1,8.55,0l4.43,36.52c.28,2.55-1.71,4.78-4.28,4.78h-8.86c-2.56,0-4.56-2.23-4.27-4.78Z"/>
  <g>
    <g>
      <rect class="cls-1" x="702.13" y="459.32" width="48.42" height="38.76" rx="4.3" ry="4.3"/>
      <rect class="cls-1" x="702.13" y="509.28" width="48.42" height="111.4" rx="4.3" ry="4.3"/>
    </g>
    <path class="cls-1" d="M870.63,459.32h-105.35c-2.38,0-4.3,1.93-4.3,4.3v41.36c0,2.38,1.93,4.3,4.3,4.3h24.08c2.38,0,4.3,1.93,4.3,4.3v102.8c0,2.38,1.93,4.3,4.3,4.3h39.81c2.38,0,4.3-1.93,4.3-4.3v-102.8c0-2.38,1.93-4.3,4.3-4.3h24.26c2.38,0,4.3-1.93,4.3-4.3v-41.36c0-2.38-1.93-4.3-4.3-4.3Z"/>
    <g>
      <rect class="cls-1" x="889.92" y="578.76" width="39" height="41.92" rx="4.3" ry="4.3"/>
      <path class="cls-1" d="M933.46,463.73l-4.37,99.67c-.1,2.23-1.81,3.99-3.89,3.99h-31.58c-2.08,0-3.79-1.76-3.89-3.99l-4.37-99.67c-.1-2.39,1.67-4.38,3.89-4.38h40.31c2.22,0,3.99,2,3.89,4.38Z"/>
    </g>
  </g>
</svg>