<?xml version="1.0" encoding="UTF-8"?>
<svg id="Camada_1" data-name="Camada 1" xmlns="http://www.w3.org/2000/svg" viewBox="0 0 1080 1080">
  <defs>
    <style>
      .cls-1 {
        fill: #174d8b;
      }
    </style>
  </defs>
  <path class="cls-1" d="M636.65,377.94c-1.53-1.59-4.07-1.63-5.65-.1-1.59,1.53-1.63,4.07-.1,5.65,28.59,29.62,36.15,78.34,19.73,127.16-27.79,82.62-113.62,142.75-229.66,160.91.09-.67.22-1.35.42-2.01l5.48-18.66c.62-2.12-.59-4.34-2.71-4.96-2.12-.62-4.34.59-4.96,2.71l-5.48,18.66c-2.25,7.67-.08,15.9,5.67,21.46l13.87,13.41c.78.75,1.78,1.12,2.78,1.12s2.09-.41,2.88-1.22c1.54-1.59,1.49-4.12-.09-5.66l-13.87-13.41c-1.09-1.05-1.94-2.26-2.61-3.56,118.98-18.66,207.13-80.77,235.88-166.24,17.38-51.66,9.11-103.49-21.56-135.26Z"/>
</svg>