<?xml version="1.0" encoding="UTF-8"?>
<svg id="Camada_1" data-name="Camada 1" xmlns="http://www.w3.org/2000/svg" viewBox="0 0 1080 1080">
  <defs>
    <style>
      .cls-1 {
        fill: #174d8b;
      }
    </style>
  </defs>
  <path class="cls-1" d="M759.43,474.42l-13.71-20.93c-3.12-4.78-9.35-6.49-14.49-4l-25.97,12.62c-1.99.96-2.81,3.36-1.85,5.35.97,1.99,3.37,2.81,5.35,1.85l23.42-11.38c-44.06,111.1-152.02,148.49-234.92,160.28-90.6,12.88-171.84-1.09-172.66-1.23-2.17-.38-4.25,1.07-4.63,3.25-.38,2.17,1.07,4.25,3.24,4.63.56.1,39.46,6.8,93.47,6.8,24.74,0,52.65-1.41,81.5-5.5,122.22-17.33,205.79-74.7,241.69-165.89.11-.28.11-.57.15-.85l12.71,19.4c.77,1.17,2.04,1.81,3.35,1.81.75,0,1.51-.21,2.19-.65,1.85-1.21,2.37-3.69,1.15-5.54Z"/>
</svg>