<?xml version="1.0" encoding="UTF-8"?>
<svg id="Camada_1" data-name="Camada 1" xmlns="http://www.w3.org/2000/svg" viewBox="0 0 1080 1080">
  <defs>
    <style>
      .cls-1 {
        fill: #174d8b;
      }
    </style>
  </defs>
  <path class="cls-1" d="M647.94,667.53c.15-2.95-.48-5.97-2-8.75l-17.98-33.04c-1.06-1.94-3.49-2.65-5.43-1.6-1.94,1.06-2.66,3.49-1.6,5.43l17.99,33.04c.12.23.2.46.3.69-127.91-4.99-185.67-81.37-196.98-151.92-9.49-59.19,12.05-114.06,50.11-127.63,2.08-.74,3.17-3.03,2.42-5.11-.74-2.08-3.04-3.17-5.11-2.42-41.63,14.84-65.41,73.5-55.32,136.43,11.81,73.64,71.75,153.36,204.27,158.63-.53.82-1.2,1.56-2.01,2.18l-30.71,23.38c-1.76,1.34-2.1,3.85-.76,5.61.79,1.03,1.98,1.58,3.19,1.58.84,0,1.7-.27,2.42-.82l30.71-23.38c3.94-3,6.15-7.41,6.46-12.01,0-.07.05-.13.05-.21,0-.03-.01-.04-.01-.07Z"/>
</svg>