<?xml version="1.0" encoding="UTF-8"?>
<svg id="Camada_1" data-name="Camada 1" xmlns="http://www.w3.org/2000/svg" viewBox="0 0 1080 1080">
  <defs>
    <style>
      .cls-1 {
        fill: #eeeff1;
      }

      .cls-2 {
        fill: #174d8b;
      }
    </style>
  </defs>
  <rect class="cls-1" x="205.4" y="242.94" width="669.19" height="594.11" rx="208.22" ry="208.22"/>
  <g>
    <path class="cls-2" d="M624.4,369.98h-168.81c-47.21,0-85.62,38.41-85.62,85.62v168.81c0,47.21,38.41,85.62,85.62,85.62h168.81c47.21,0,85.62-38.41,85.62-85.62v-168.81c0-47.21-38.41-85.62-85.62-85.62ZM691.02,455.6v38.84c-7.5-6.6-16.14-10.79-24.53-14.83-1.38-.66-2.75-1.32-4.12-2-8.38-4.12-16.77-8.91-21.39-16.04-3.43-5.29-4.32-13.67-.18-17.73,1.87-1.83,4.86-3.14,8.31-4.66,3.68-1.61,7.84-3.44,11.66-6.43,5.56-4.35,10.08-13.23,12.43-22.43,11.04,11.89,17.81,27.8,17.81,45.27ZM388.98,624.4v-168.81c0-9.96,2.21-19.42,6.15-27.91,7.98,4.58,13.52,13.64,13.44,22.84-.04,4.38-1.18,9.05-2.39,13.99-1.17,4.79-2.39,9.74-2.8,15.1-1.79,22.96,11.45,42.57,23.13,59.86l.21.31c10.55,15.64,19.87,32.24,16.58,47.69-2.1,9.86-9.14,18.4-16.59,27.45-5.21,6.33-10.61,12.87-14.8,20.4-5.12,9.21-8.11,19.5-8.85,29.96-8.81-11.3-14.08-25.48-14.08-40.88ZM423.3,682.64c-3.05-12.78-1.18-26.58,5.22-38.07,3.35-6.02,7.97-11.62,12.86-17.55,8.58-10.41,17.45-21.18,20.52-35.58,4.76-22.39-6.52-43.16-19.42-62.27l-.21-.31c-10.42-15.44-21.2-31.41-19.93-47.76.3-3.82,1.28-7.82,2.32-12.05,1.42-5.79,2.89-11.77,2.94-18.36.13-15.76-8.75-30.83-22.07-38.93,12.22-13.94,30.14-22.77,50.09-22.77h168.81c11.46,0,22.26,2.91,31.69,8.03.29,6.01-3.53,18.05-7.02,20.79-1.93,1.51-4.67,2.71-7.58,3.99-4.51,1.98-9.63,4.23-13.98,8.49-11.7,11.47-10,30.01-2.47,41.63,7.15,11.02,18.64,17.69,28.95,22.75,1.41.69,2.84,1.38,4.26,2.06,7.91,3.8,15.38,7.4,21.04,12.67,8.59,8,12.88,20.64,10.93,32.22l.8.13v51.69c-3.13,2.33-9.11,1.91-13.5-.07-4.46-2.01-8.67-5.29-13.12-8.76-2.79-2.18-5.68-4.43-8.81-6.52-12.4-8.25-25.46-10.32-35.82-5.67-10.11,4.54-15.28,13.83-19.83,22.02-4.31,7.75-7.23,12.53-11.41,13.52-5.46,1.28-12.03-5.43-14.99-12.39-1.51-3.56-2.65-7.45-3.86-11.58-2.15-7.32-4.36-14.88-9-21.93-10.72-16.28-32.79-24.01-51.32-17.97-18.54,6.04-31.82,25.28-30.89,44.75.57,12,5.92,22.59,10.63,31.94.92,1.83,1.85,3.66,2.73,5.48,5.67,11.75,7.12,20.59,4.42,27.04-2.03,4.87-6.74,9.05-11.71,13.47-1.94,1.73-3.96,3.52-5.9,5.42-5.96,5.84-9.97,12.35-11.85,18.81h-11.16c-11.71,0-22.73-3.05-32.3-8.38ZM624.4,691.02h-136.84c1.25-1.89,2.76-3.7,4.34-5.24,1.62-1.59,3.37-3.14,5.23-4.79,6.06-5.38,12.92-11.49,16.63-20.36,4.91-11.75,3.32-25.69-4.85-42.62-.93-1.93-1.9-3.86-2.88-5.79-4.24-8.39-8.24-16.32-8.61-24.28-.53-11.04,7.29-22.36,17.8-25.78,10.51-3.42,23.5,1.13,29.57,10.35,3.07,4.67,4.8,10.57,6.64,16.82,1.31,4.47,2.66,9.08,4.61,13.66,5.98,14.07,20.05,27.39,36.84,23.45,12.66-2.99,18.76-13.96,23.66-22.78,3.42-6.15,6.65-11.96,11-13.92,4.22-1.89,10.77-.34,17.52,4.15,2.54,1.69,5.02,3.63,7.65,5.68,5.14,4.01,10.46,8.16,17,11.11,6.27,2.82,14.03,4.13,21.3,2.84v10.87c0,36.73-29.88,66.62-66.62,66.62Z"/>
    <path class="cls-2" d="M496.44,511.32c9.01,2.58,17.7.97,25.37-.45,6.15-1.14,11.96-2.22,16.67-.86,5.25,1.5,11.43,6.31,17.4,10.95,7.4,5.75,15.05,11.7,23.83,14.22,2.85.82,6.55,1.88,10.66,1.88,1.06,0,2.14-.07,3.24-.23,10.59-1.54,18.96-11.08,19.91-22.68.66-8.02-2.08-16.56-7.92-24.72-2.61-3.65-5.5-6.83-8.28-9.91-1.76-1.94-3.41-3.77-4.94-5.64-6.04-7.41-10.55-16.11-15.33-25.32-1.62-3.12-3.23-6.23-4.91-9.3-6.42-11.75-15.7-26.35-30.5-35.04-14.09-8.27-29-8.7-46.91-1.35l-.07.03c-12.3,5.16-22.62,15.89-28.33,29.46-7.97,18.94-8.49,39.06-1.41,53.84,5.86,12.22,16.75,20.91,31.51,25.14ZM483.86,439.71c3.79-9,10.39-16.03,18.12-19.29,12.28-5.03,21.27-4.98,30.05.17,10.78,6.33,18.19,18.16,23.44,27.77,1.61,2.95,3.17,5.94,4.72,8.94,5.01,9.66,10.19,19.64,17.47,28.57,1.84,2.26,3.74,4.36,5.58,6.39,2.54,2.8,4.94,5.45,6.92,8.22,2.22,3.1,4.79,7.72,4.43,12.1-.23,2.79-2.19,5.21-3.72,5.43-1.37.21-3.79-.5-5.93-1.11-5.25-1.5-11.43-6.31-17.4-10.95-7.4-5.75-15.05-11.7-23.83-14.22-3.48-1-6.9-1.37-10.24-1.37-5.32,0-10.41.94-15.12,1.82-6.15,1.14-11.96,2.22-16.67.86-9.65-2.76-16.07-7.7-19.61-15.09-5.61-11.72-2.75-27.45,1.79-38.26Z"/>
  </g>
</svg>