<?xml version="1.0" encoding="UTF-8"?>
<svg id="Camada_1" data-name="Camada 1" xmlns="http://www.w3.org/2000/svg" viewBox="0 0 1080 1080">
  <defs>
    <style>
      .cls-1 {
        fill: #eeeff1;
      }

      .cls-2 {
        fill: #174d8b;
      }
    </style>
  </defs>
  <rect class="cls-2" x="45.98" y="398.08" width="988.04" height="283.84" rx="38.54" ry="38.54"/>
  <g>
    <path class="cls-1" d="M244.88,551.13v30.1h-23.1v-84.76h39.21c12.94,0,19.41,5.46,19.41,16.37v21.92c0,8.36-3.79,13.51-11.35,15.44l15.58,31.02h-24.82l-13.46-30.1h-1.45ZM253.99,512.98h-9.11v22.44h9.11c2.2,0,3.3-.97,3.3-2.9v-16.64c0-1.94-1.1-2.9-3.3-2.9Z"/>
    <path class="cls-1" d="M312.74,564.73h28.91v16.5h-52.01v-84.76h50.82v16.5h-27.72v17.29h23.9v16.5h-23.9v17.95Z"/>
    <path class="cls-1" d="M381.39,561.82v-12.01c0-1.94-1.1-2.9-3.3-2.9h-12.67c-6.51,0-11.11-1.43-13.79-4.29-2.69-2.86-4.03-6.98-4.03-12.34v-17.43c0-10.91,6.42-16.37,19.27-16.37h18.09c12.85,0,19.28,5.46,19.28,16.37v10.16h-23.11v-7.13c0-1.94-1.1-2.9-3.3-2.9h-3.83c-2.2,0-3.3.97-3.3,2.9v12.54c0,1.94,1.1,2.9,3.3,2.9h12.41c6.51,0,11.16,1.37,13.93,4.09,2.77,2.73,4.16,6.73,4.16,12.01v17.43c0,10.91-6.43,16.37-19.28,16.37h-17.95c-12.94,0-19.41-5.46-19.41-16.37v-10.16h23.1v7.13c0,1.94,1.1,2.9,3.3,2.9h3.83c2.2,0,3.3-.97,3.3-2.9Z"/>
    <path class="cls-1" d="M448.98,496.48h23.11v68.38c0,10.91-6.47,16.37-19.41,16.37h-19.54c-12.94,0-19.4-5.46-19.4-16.37v-68.38h23.1v65.35c0,1.94,1.1,2.9,3.3,2.9h5.55c2.2,0,3.3-.97,3.3-2.9v-65.35Z"/>
    <path class="cls-1" d="M505.74,564.73h26.27v16.5h-49.37v-84.76h23.1v68.25Z"/>
    <path class="cls-1" d="M588.39,496.48v16.5h-16.37v68.25h-23.1v-68.25h-16.24v-16.5h55.71Z"/>
    <path class="cls-1" d="M637.49,581.23l-2.64-12.67h-20.33l-2.77,12.67h-22.71l21.78-84.76h28.12l21.78,84.76h-23.23ZM618.09,552.19h13.2l-6.47-30.5-6.73,30.5Z"/>
    <path class="cls-1" d="M667.33,496.48h38.94c12.94,0,19.41,5.46,19.41,16.37v52.01c0,10.91-6.47,16.37-19.41,16.37h-38.94v-84.76ZM702.58,563.14v-48.58c0-1.94-1.1-2.9-3.3-2.9h-8.84v54.39h8.84c2.2,0,3.3-.97,3.3-2.9Z"/>
    <path class="cls-1" d="M754.86,496.48h19.54c12.94,0,19.4,5.46,19.4,16.37v52.01c0,10.91-6.47,16.37-19.4,16.37h-19.54c-12.94,0-19.41-5.46-19.41-16.37v-52.01c0-10.91,6.47-16.37,19.41-16.37ZM770.7,561.82v-45.94c0-1.94-1.1-2.9-3.3-2.9h-5.55c-2.2,0-3.3.97-3.3,2.9v45.94c0,1.94,1.1,2.9,3.3,2.9h5.55c2.2,0,3.3-.97,3.3-2.9Z"/>
    <path class="cls-1" d="M836.44,561.82v-12.01c0-1.94-1.1-2.9-3.3-2.9h-12.67c-6.51,0-11.11-1.43-13.79-4.29-2.69-2.86-4.03-6.98-4.03-12.34v-17.43c0-10.91,6.42-16.37,19.27-16.37h18.09c12.85,0,19.28,5.46,19.28,16.37v10.16h-23.11v-7.13c0-1.94-1.1-2.9-3.3-2.9h-3.83c-2.2,0-3.3.97-3.3,2.9v12.54c0,1.94,1.1,2.9,3.3,2.9h12.41c6.51,0,11.16,1.37,13.93,4.09,2.77,2.73,4.16,6.73,4.16,12.01v17.43c0,10.91-6.43,16.37-19.28,16.37h-17.95c-12.94,0-19.41-5.46-19.41-16.37v-10.16h23.1v7.13c0,1.94,1.1,2.9,3.3,2.9h3.83c2.2,0,3.3-.97,3.3-2.9Z"/>
  </g>
</svg>