<?xml version="1.0" encoding="UTF-8"?>
<svg id="Camada_1" data-name="Camada 1" xmlns="http://www.w3.org/2000/svg" viewBox="0 0 1080 1080">
  <defs>
    <style>
      .cls-1 {
        fill: #eeeff1;
      }

      .cls-2 {
        fill: #174d8b;
      }
    </style>
  </defs>
  <rect class="cls-1" x="205.4" y="242.94" width="669.19" height="594.11" rx="208.22" ry="208.22"/>
  <path class="cls-2" d="M683.36,461.07l-137.86-92.12c-3.34-2.23-7.66-2.23-11,0l-137.86,92.12c-2.76,1.84-4.41,4.92-4.41,8.24v141.4c0,3.32,1.65,6.4,4.4,8.24l137.86,92.12c1.67,1.12,3.59,1.68,5.5,1.68s3.83-.56,5.5-1.68l137.86-92.12c2.76-1.84,4.41-4.92,4.41-8.24v-141.4c0-3.32-1.65-6.4-4.4-8.23ZM527.26,567.85v107.72l-109.55-73.2v-107.72l109.55,73.2ZM652.1,470.82l-112.09,74.9-112.1-74.9,112.1-74.9,112.1,74.9ZM552.74,567.85l109.55-73.2v107.72l-109.55,73.2v-107.72Z"/>
</svg>