<?xml version="1.0" encoding="UTF-8"?>
<svg id="Camada_1" data-name="Camada 1" xmlns="http://www.w3.org/2000/svg" viewBox="0 0 1080 1080">
  <defs>
    <style>
      .cls-1 {
        fill: #174d8b;
      }
    </style>
  </defs>
  <path class="cls-1" d="M809.22,603.65c-.91-2.01-23.22-49.75-100.4-87.08-70.28-33.99-201.57-65.08-428.22-20.8l15.24-18.54c1.4-1.71,1.16-4.23-.55-5.63-1.7-1.4-4.23-1.15-5.63.55l-16.53,20.11c-2.35,2.86-3.22,6.56-2.4,10.16.82,3.6,3.21,6.56,6.56,8.12l26.76,12.42c.54.25,1.12.37,1.68.37,1.51,0,2.95-.86,3.63-2.32.93-2,.06-4.38-1.95-5.31l-25.81-11.98c224.21-43.89,353.74-13.57,422.97,19.69,74.95,36.01,97.14,83.08,97.35,83.55.67,1.47,2.12,2.34,3.64,2.34.55,0,1.11-.12,1.65-.36,2.01-.91,2.9-3.28,1.99-5.29Z"/>
</svg>