<?xml version="1.0" encoding="UTF-8"?>
<svg id="Camada_1" data-name="Camada 1" xmlns="http://www.w3.org/2000/svg" viewBox="0 0 1080 1080">
  <defs>
    <style>
      .cls-1 {
        fill: #174d8b;
      }
    </style>
  </defs>
  <path class="cls-1" d="M805.2,585.16c-2.3-2.55-5.58-4.02-9.02-4.02h-27.11c-2.21,0-4,1.79-4,4s1.79,4,4,4h26.31c-.06.04-.12.04-.18.08-57.94,42.62-135.14,59.84-206.51,46.1-44.9-8.65-82.19-29.04-104.62-56.77,40.23-5,75.48-20.35,94.79-43.41,15.82-18.89,19.4-41.25,10.35-64.66-8.68-22.45-26.3-36.01-49.62-38.17-29.05-2.7-60.64,13.7-76.81,39.87-10.29,16.65-23.14,51.69,6.43,99.28.05.09.11.18.17.27-19.17,1.25-39.14.14-58.55-3.64-38.3-7.46-106.29-31.56-131.35-109.13-.68-2.1-2.93-3.26-5.04-2.58-2.1.68-3.26,2.93-2.58,5.04,26.32,81.48,97.4,106.73,137.43,114.53,21.9,4.27,44.2,5.34,65.4,3.58,23.22,31.27,63.59,54.24,112.47,63.65,16.65,3.21,33.61,4.78,50.58,4.78,57.95,0,116.01-18.32,162.19-52.29.06-.04.09-.11.14-.16l-2.78,26.14c-.23,2.2,1.36,4.17,3.55,4.4.14.01.29.02.43.02,2.02,0,3.75-1.52,3.97-3.58l2.97-27.95c.36-3.41-.75-6.84-3.04-9.39ZM476.02,567.25c-20.23-32.55-22.51-64.81-6.42-90.85,13.59-21.99,39.12-36.37,63.64-36.37,1.88,0,3.76.08,5.63.26,20.13,1.87,35.37,13.62,42.89,33.08,7.94,20.53,4.81,40.12-9.02,56.64-18.49,22.08-54.16,36.72-94.3,40.95-.84-1.23-1.64-2.47-2.42-3.72Z"/>
</svg>