<?xml version="1.0" encoding="UTF-8"?>
<svg id="Camada_1" data-name="Camada 1" xmlns="http://www.w3.org/2000/svg" viewBox="0 0 1080 1080">
  <defs>
    <style>
      .cls-1 {
        fill: #174d8b;
      }
    </style>
  </defs>
  <path class="cls-1" d="M647.42,676.16l-8.89-30.38c-.62-2.12-2.84-3.34-4.96-2.72-2.12.62-3.34,2.84-2.71,4.96l8.85,30.22c-124.02-53.56-170.87-130.36-188.32-185.43-18.96-59.84-8.34-107.73-8.23-108.21.49-2.15-.85-4.3-3-4.79-2.18-.5-4.3.85-4.8,3-.46,2.02-11.21,50.16,8.27,112,17.92,56.89,66.05,136.21,193.59,191.08-.88.65-1.89,1.11-3.02,1.29l-32.68,5.17c-2.18.35-3.67,2.39-3.32,4.58.31,1.97,2.01,3.38,3.95,3.38.21,0,.42-.02.63-.05l32.68-5.17c4.23-.67,7.98-3.13,10.27-6.75s2.91-8.05,1.71-12.17Z"/>
</svg>