<?xml version="1.0" encoding="UTF-8"?>
<svg id="Camada_1" data-name="Camada 1" xmlns="http://www.w3.org/2000/svg" viewBox="0 0 1080 1080">
  <defs>
    <style>
      .cls-1 {
        fill: #174d8b;
      }
    </style>
  </defs>
  <path class="cls-1" d="M624.53,606.84c-.46-2.16-2.59-3.54-4.75-3.08l-25.43,5.44c-.92.2-1.84.21-2.75.14,20.99-23.56,28.07-45.89,20.96-66.39-20.12-58.05-147.13-79.44-152.52-80.32-2.19-.34-4.24,1.12-4.59,3.3-.36,2.18,1.12,4.24,3.3,4.59,1.28.21,127.69,21.49,146.26,75.05,6.21,17.93-.7,38.03-20.54,59.77-1.07-1.48-1.76-3.23-1.87-5.1l-1.62-27.28c-.13-2.2-1.99-3.94-4.23-3.75-2.21.13-3.89,2.03-3.75,4.23l1.62,27.28c.31,5.17,2.85,9.93,6.97,13.07,3.12,2.37,6.89,3.62,10.74,3.62,1.24,0,2.48-.13,3.71-.39l25.43-5.44c2.16-.46,3.54-2.59,3.08-4.75Z"/>
</svg>