<?xml version="1.0" encoding="UTF-8"?>
<svg id="Camada_1" data-name="Camada 1" xmlns="http://www.w3.org/2000/svg" viewBox="0 0 1080 1080">
  <defs>
    <style>
      .cls-1 {
        fill: #174d8b;
      }
    </style>
  </defs>
  <path class="cls-1" d="M612.86,639.27l-12.59-18.58c-1.24-1.83-3.73-2.31-5.56-1.07-1.83,1.24-2.31,3.73-1.07,5.56l11.91,17.58c-52.68-3.73-90.22-22.28-111.54-55.16-44.05-67.93-5.07-175.7-4.67-176.78.77-2.07-.29-4.37-2.37-5.14-2.07-.76-4.37.29-5.14,2.37-1.69,4.56-40.78,112.56,5.45,183.88,22.87,35.28,62.73,55.09,118.48,58.88-.06.06-.08.15-.14.21l-16.11,16.79c-1.53,1.59-1.48,4.13.12,5.66.78.74,1.77,1.11,2.77,1.11,1.05,0,2.1-.41,2.89-1.23l16.11-16.79c4.47-4.66,5.09-11.93,1.46-17.27Z"/>
</svg>