<?xml version="1.0" encoding="UTF-8"?>
<svg id="Camada_1" data-name="Camada 1" xmlns="http://www.w3.org/2000/svg" viewBox="0 0 1080 1080">
  <defs>
    <style>
      .cls-1 {
        fill: #174d8b;
      }
    </style>
  </defs>
  <path class="cls-1" d="M702.29,536.7c-2.2-2.66-5.45-4.19-8.91-4.19h-41.86c-2.21,0-4,1.79-4,4s1.79,4,4,4h40.35c-53.8,37.37-113.48,50.58-172.8,38.12-63-13.25-116.4-54.24-136.6-87.89-1.14-1.89-3.6-2.51-5.49-1.37-1.89,1.14-2.51,3.59-1.37,5.49,20.43,34.06,73.53,77.25,141.81,91.61,15.1,3.17,30.21,4.75,45.25,4.75,46.24,0,91.76-14.94,133.75-44.11l-6.97,36.62c-.41,2.17,1.01,4.26,3.18,4.68.25.05.5.07.75.07,1.88,0,3.56-1.33,3.93-3.25l7.42-38.98c.65-3.39-.25-6.87-2.45-9.53Z"/>
</svg>